HIERARCHY
ROOT Hips
{
	OFFSET 0.000000 0.000000 0.000000
	CHANNELS 6 Xposition Yposition Zposition Zrotation Yrotation Xrotation 
	JOINT LeftUpLeg_virtual
	{
		OFFSET 0.000000 0.000000 0.000000
		CHANNELS 3 Zrotation Yrotation Xrotation
		JOINT LeftUpLeg
		{
			OFFSET 8.479694 -4.795517 -0.379053
			CHANNELS 3 Zrotation Yrotation Xrotation
			JOINT LeftLeg
			{
				OFFSET 0.485052 -32.551468 0.112863
				CHANNELS 3 Zrotation Yrotation Xrotation
				JOINT LeftFoot
				{
					OFFSET 0.438033 -32.635670 -3.012641
					CHANNELS 3 Zrotation Yrotation Xrotation
					JOINT LeftToeBase
					{
						OFFSET 0.970169 -13.225353 11.864223
						CHANNELS 3 Zrotation Yrotation Xrotation
						End Site
						{
							OFFSET 0.000000 0.000000 0.000000
						}
					}
				}
			}
		}
	}
	JOINT RightUpLeg_virtual
	{
		OFFSET 0.000000 0.000000 0.000000
		CHANNELS 3 Zrotation Yrotation Xrotation
		JOINT RightUpLeg
		{
			OFFSET -8.479694 -4.795517 -0.379053
			CHANNELS 3 Zrotation Yrotation Xrotation
			JOINT RightLeg
			{
				OFFSET -0.484100 -32.551483 0.112903
				CHANNELS 3 Zrotation Yrotation Xrotation
				JOINT RightFoot
				{
					OFFSET -0.438985 -32.635651 -3.012681
					CHANNELS 3 Zrotation Yrotation Xrotation
					JOINT RightToeBase
					{
						OFFSET -0.970169 -13.225354 11.864223
						CHANNELS 3 Zrotation Yrotation Xrotation
						End Site
						{
							OFFSET 0.000000 0.000000 0.000000
						}
					}
				}
			}
		}
	}
	JOINT Spine_virtual
	{
		OFFSET 0.000000 0.000000 0.000000
		CHANNELS 3 Zrotation Yrotation Xrotation
		JOINT Spine
		{
			OFFSET 0.000000 7.722015 1.166203
			CHANNELS 3 Zrotation Yrotation Xrotation
			JOINT Spine1
			{
				OFFSET 0.000000 12.024086 0.248766
				CHANNELS 3 Zrotation Yrotation Xrotation
				JOINT Spine2
				{
					OFFSET -0.000000 11.503036 -0.491240
					CHANNELS 3 Zrotation Yrotation Xrotation
					JOINT Neck_virtual
					{
						OFFSET 0.000000 0.000000 0.000000
						CHANNELS 3 Zrotation Yrotation Xrotation
						JOINT Neck
						{
							OFFSET 0.000000 18.430687 -3.123054
							CHANNELS 3 Zrotation Yrotation Xrotation
							JOINT Head
							{
								OFFSET -0.000000 9.051071 1.034021
								CHANNELS 3 Zrotation Yrotation Xrotation
								End Site
								{
									OFFSET 0.000000 0.000000 0.000000
								}
							}
						}
					}
					JOINT LeftShoulder_virtual
					{
						OFFSET 0.000000 0.000000 0.000000
						CHANNELS 3 Zrotation Yrotation Xrotation
						JOINT LeftShoulder
						{
							OFFSET 6.197824 13.665230 -4.064723
							CHANNELS 3 Zrotation Yrotation Xrotation
							JOINT LeftArm
							{
								OFFSET 7.778132 -0.187073 -1.709282
								CHANNELS 3 Zrotation Yrotation Xrotation
								JOINT LeftForeArm
								{
									OFFSET 21.954697 0.000000 -2.041093
									CHANNELS 3 Zrotation Yrotation Xrotation
									JOINT LeftHand
									{
										OFFSET 22.992908 0.000000 -0.870901
										CHANNELS 3 Zrotation Yrotation Xrotation
										End Site
										{
											OFFSET 0.000000 0.000000 0.000000
										}
									}
								}
							}
						}
					}
					JOINT RightShoulder_virtual
					{
						OFFSET 0.000000 0.000000 0.000000
						CHANNELS 3 Zrotation Yrotation Xrotation
						JOINT RightShoulder
						{
							OFFSET -6.197824 13.665230 -4.064723
							CHANNELS 3 Zrotation Yrotation Xrotation
							JOINT RightArm
							{
								OFFSET -7.778132 -0.187073 -1.709282
								CHANNELS 3 Zrotation Yrotation Xrotation
								JOINT RightForeArm
								{
									OFFSET -21.954697 0.000000 -2.041093
									CHANNELS 3 Zrotation Yrotation Xrotation
									JOINT RightHand
									{
										OFFSET -22.992908 0.000000 -0.870901
										CHANNELS 3 Zrotation Yrotation Xrotation
										End Site
										{
											OFFSET 0.000000 0.000000 0.000000
										}
									}
								}
							}
						}
					}
				}
			}
		}
	}
}
MOTION
Frames: 7
Frame Time: 0.033333
-99.860931 81.118439 -5.911037 -1.617009 35.346594 -1.394633 -0.090882 -4.735147 17.361574 10.163259 8.626102 -28.125858 2.670844 -12.759425 48.759484 -6.213908 -11.685960 -14.277156 0.000000 0.000000 0.000000 3.519680 -4.705522 17.628795 0.231692 -1.503527 -31.670645 3.097580 11.063046 38.237400 11.776946 1.558497 -0.118259 0.000000 0.000000 0.000000 5.690125 1.606023 4.334242 -1.224167 2.548971 -8.449622 0.444872 -1.109504 8.287010 -0.127865 -0.358262 -0.011378 -0.364000 1.215729 13.362592 20.088934 -0.434533 -7.646990 0.000000 0.000000 0.000000 1.261036 1.845130 12.025169 -0.985372 -5.744248 -6.064155 -87.054080 12.964384 30.261109 21.329653 -1.499242 27.349015 0.000000 0.000000 0.000000 -4.076809 3.856855 8.895679 5.658313 3.915033 1.880272 68.557942 -7.897989 31.224531 -155.707932 47.451681 -145.929109 0.000000 0.000000 0.000000 
-100.419449 81.441345 -5.253885 -1.077311 37.831294 -0.921072 -1.526242 -4.304699 16.695906 10.293698 13.236243 -27.938800 0.982897 -11.800654 47.718741 -7.417931 -10.052100 -14.127810 0.000000 0.000000 0.000000 3.123963 -4.374891 16.689770 1.039671 -5.490579 -29.742612 2.302829 9.589064 36.607068 10.718445 3.581017 0.175050 0.000000 0.000000 0.000000 3.904730 2.046622 2.993041 -0.408591 3.530896 -8.430885 0.231054 -1.348440 8.656595 -0.048201 -0.243066 0.006742 -0.569002 0.866967 13.423465 19.563859 -0.026579 -7.446411 0.000000 0.000000 0.000000 0.777669 1.755870 11.816135 0.304276 -4.722749 -6.320578 -89.460165 4.462835 27.429334 21.210167 0.568021 27.386936 0.000000 0.000000 0.000000 -4.436662 3.763514 8.703138 3.198003 0.140751 1.101854 70.401164 -3.341230 34.028726 -160.882415 39.163120 -155.087997 0.000000 0.000000 0.000000 
-100.669113 81.969528 -4.695589 -0.197327 39.518682 0.080903 -2.976329 -2.089803 16.314397 9.358601 16.695540 -28.574756 -0.377327 -10.804708 43.972293 -8.265189 -8.819668 -13.996994 0.000000 0.000000 0.000000 3.497453 -1.894679 16.974869 2.532931 -13.774618 -29.340235 1.071484 7.054936 34.121211 9.589971 4.119325 2.178403 0.000000 0.000000 0.000000 2.302192 3.246105 2.137067 -0.078688 4.000757 -8.942513 -0.146983 -1.605983 9.045664 0.000111 -0.127433 -0.009573 -0.717725 0.636963 13.635488 19.246413 0.164740 -6.562509 0.000000 0.000000 0.000000 0.388609 1.467143 11.794029 2.295299 -3.503646 -6.446985 -90.938621 -2.641671 25.728064 20.059875 -1.042982 26.878044 0.000000 0.000000 0.000000 -4.720608 3.447555 8.827349 2.489791 -3.141783 0.310802 71.393754 1.585149 34.331188 -162.433237 34.881687 -159.900384 0.000000 0.000000 0.000000 
-100.569977 82.466774 -4.376870 -0.414198 40.224350 0.163012 -3.374219 0.560881 16.213472 8.115536 19.324287 -29.818444 -1.184892 -9.357954 39.223536 -8.022640 -7.459270 -13.222653 0.000000 0.000000 0.000000 3.701454 0.429446 17.720916 3.869996 -18.049673 -29.662559 -0.165700 3.993735 32.378522 9.414537 4.606745 3.749146 0.000000 0.000000 0.000000 1.498185 4.521458 1.994293 0.058626 4.713036 -9.617717 -0.249005 -1.841257 9.382673 -0.045984 -0.037217 0.092803 -0.701809 0.444431 13.666823 18.751682 0.030263 -5.066136 0.000000 0.000000 0.000000 0.410364 1.030228 11.560609 4.086973 -2.340207 -6.244801 -91.509672 -6.885524 25.308761 18.207713 -5.588167 26.304730 0.000000 0.000000 0.000000 -4.598733 2.969307 8.681815 2.954376 -5.523645 -0.574831 71.453314 6.281923 31.629325 -162.939668 33.582353 -162.700789 0.000000 0.000000 0.000000 
-100.487808 82.878288 -4.165947 0.327154 40.604232 0.477787 -3.779582 2.236827 16.264969 6.493386 20.713898 -31.188167 -1.857001 -8.332444 34.859561 -7.306638 -6.907545 -11.601344 0.000000 0.000000 0.000000 4.846948 1.512933 18.046350 1.904421 -21.474818 -29.233227 0.842948 3.258001 31.839487 10.458480 6.128733 4.418421 0.000000 0.000000 0.000000 0.758201 5.138930 2.389514 -0.583571 5.038440 -10.062816 -0.174383 -1.901739 9.829838 0.023035 -0.023889 0.083607 -0.545583 0.275719 13.539889 17.918026 -0.024117 -2.954703 0.000000 0.000000 0.000000 0.820278 0.891282 10.916610 5.338492 -1.376276 -5.808774 -91.205968 -9.454220 26.116185 16.451107 -10.259397 25.801748 0.000000 0.000000 0.000000 -4.121868 2.707266 8.448210 3.665535 -6.404480 -1.430134 71.206498 10.048532 25.989203 -163.869748 34.535929 -165.343362 0.000000 0.000000 0.000000 
-100.531715 83.098900 -4.078735 0.728462 40.396836 0.474460 -3.728106 2.578416 16.619017 5.353148 21.249070 -32.585361 -2.407812 -7.503852 31.663750 -6.026133 -7.006902 -9.684938 0.000000 0.000000 0.000000 5.297661 0.281970 17.473548 0.968553 -24.409662 -28.711397 1.033941 3.602053 32.473940 12.373327 6.903721 4.496041 0.000000 0.000000 0.000000 0.744969 4.656282 2.961363 -1.497970 5.635631 -10.309324 0.027987 -1.712718 10.252234 0.059384 0.123505 -0.013991 0.001324 0.459291 13.503697 16.674037 0.142598 -0.664803 0.000000 0.000000 0.000000 1.548857 0.889285 10.216775 5.615152 -1.321486 -5.469166 -90.583799 -11.160501 27.415519 15.325317 -13.147128 25.640178 0.000000 0.000000 0.000000 -3.349881 2.561006 8.039569 3.456143 -6.222525 -2.193540 71.446729 11.648491 19.879827 -165.895787 37.285507 -167.569225 0.000000 0.000000 0.000000 
-100.443222 83.129669 -4.208185 0.774019 39.218772 0.458585 -3.327834 2.164056 17.266872 4.188644 22.231689 -33.929381 -2.563965 -6.770279 29.389686 -4.673146 -7.767120 -7.622841 0.000000 0.000000 0.000000 5.634652 -1.653376 15.873177 -0.102578 -26.182524 -28.008266 1.037387 3.670096 33.448744 13.902513 7.183566 4.646809 0.000000 0.000000 0.000000 1.068842 3.734374 3.633845 -2.397415 6.450015 -10.581169 0.407462 -1.257829 10.538112 0.049781 0.353876 -0.071649 0.404737 0.618114 13.469766 15.263849 0.847342 1.278913 0.000000 0.000000 0.000000 2.131602 0.966744 9.454788 5.104768 -1.792455 -5.060907 -89.815779 -12.981910 28.361522 15.221732 -12.937732 25.626656 0.000000 0.000000 0.000000 -2.610299 2.769250 7.701536 2.017341 -4.944842 -2.843194 72.437066 11.232677 14.296061 -168.158424 40.722052 -169.403581 0.000000 0.000000 0.000000 
